# xmcd
#
# Track frame offsets:
#	150
#	12297
#	25834
#	37554
#	48607
#	61898
#	74616
#	87784
#	98544
#	112260
#	125483
#	139415
#	149303
#	161760
#	174330
#	187794
#	201406
#	213481
#	224299
#	238715
#	247226
#	259628
#	271378
#	284335
#	296405
#	308544
#	318677
#	330333
#
# Disc length: 4570 seconds
#
# Revision: 0
# Processed by: cddbd v1.5.2PL0 Copyright (c) Steve Scherf et al.
# Submitted via: EZCDAudioConverter 7.1.5.1
#
DISCID=a411d81c
DTITLE=Arthur "Big Boy" Crudup - Rocks
DYEAR=2017
DGENRE=Blues
TTITLE0=Open Your Book
TTITLE1=That's All Right
TTITLE2=Star Bootlegger
TTITLE3=Mean Old Santa Fe
TTITLE4=Gonna Find My Baby
TTITLE5=Train Fare Blues
TTITLE6=I Don't Know It
TTITLE7=My Baby Left Me
TTITLE8=I Want My Lovin'
TTITLE9=Hey Mama - Everything's All Right
TTITLE10=Dirt Road Blues
TTITLE11=She's My Baby
TTITLE12=Gonn Be Some Changes Made
TTITLE13=Where Did You Stay Last Night
TTITLE14=I'm Gonna Dig Myself A Hole
TTITLE15=Worried 'bout My Baby
TTITLE16=Goin' Back To Georgia
TTITLE17=My Mama Don't Allow Me
TTITLE18=That's Why I'm Lonesome
TTITLE19=Looka There She's Got No Hair
TTITLE20=Do It If You Want To
TTITLE21=Come Back Baby
TTITLE22=Tired Of Worry
TTITLE23=Shout Sister Shout
TTITLE24=Keep On Drinkin'
TTITLE25=She's Got No Hair
TTITLE26=Mean Old Firsco
TTITLE27=So Glad You're Mine
EXTD=
EXTT0=
EXTT1=
EXTT2=
EXTT3=
EXTT4=
EXTT5=
EXTT6=
EXTT7=
EXTT8=
EXTT9=
EXTT10=
EXTT11=
EXTT12=
EXTT13=
EXTT14=
EXTT15=
EXTT16=
EXTT17=
EXTT18=
EXTT19=
EXTT20=
EXTT21=
EXTT22=
EXTT23=
EXTT24=
EXTT25=
EXTT26=
EXTT27=
PLAYORDER=
